# xmcd
#
# Track frame offsets:
#	150
#	30827
#	48040
#	61497
#	85225
#	97377
#	114480
#	129477
#	142957
#	166907
#	187265
#	203395
#	223205
#	244030
#	265420
#	298772
#	314300
#	341902
#
# Disc length: 4784 seconds
#
# Revision: 1
# Processed by: cddbd v1.4PL0 Copyright (c) Steve Scherf et al.
# Submitted via: audiograbber 1.81.02
#
DISCID=1012ae12
DTITLE=John Lee Hooker - The Real Folk Blues/More Real Folk Blues
DYEAR=2002
DGENRE=Blues
TTITLE0=Let's Go Out Tonight
TTITLE1=Peace Lovin' Man
TTITLE2=Stella Mae
TTITLE3=I Put My Trust In You
TTITLE4=I'm In The Mood
TTITLE5=You Know, I Know
TTITLE6=I'll Never Trust Your Love Again
TTITLE7=One Bourbon, One Scotch, One Beer
TTITLE8=The Waterfront
TTITLE9=This Land Is Nobody's Land
TTITLE10=Deep Blue Sea
TTITLE11=Nobody Knows
TTITLE12=Mustang Sally and GTO
TTITLE13=Lead Me
TTITLE14=Catfish
TTITLE15=I Can't Quit You Baby
TTITLE16=Want Ad Blues
TTITLE17=House Rent Blues
EXTD=MCA 112821\n© 2002
EXTT0=
EXTT1=
EXTT2=
EXTT3=
EXTT4=
EXTT5=
EXTT6=
EXTT7=
EXTT8=
EXTT9=
EXTT10=
EXTT11=
EXTT12=
EXTT13=
EXTT14=
EXTT15=
EXTT16=
EXTT17=
PLAYORDER=
